<svg width="1200" height="288" viewBox="0 0 1200 288" fill="none" xmlns="http://www.w3.org/2000/svg">
<path fill-rule="evenodd" clip-rule="evenodd" d="M17 260.5L91 210.5C119 198.5 215 196.5 272 166.5C330 136.5 390 195.5 459.5 129.5C516.5 129.5 556.5 102 613.5 108C670.5 114 813 172.5 870 166.5C927 160.5 870.5 97 927.5 115C984.5 133 971 120 1029 108C1086 96 1143 48 1171 24L1200 0V288H1171C1143 288 1086 288 1029 288C971 288 914 288 857 288C800 288 743 288 686 288C629 288 571 288 514 288C457 288 400 288 343 288C286 288 229 288 171 288C114 288 57 288 29 288H0L17 260.5Z" fill="black"/>
</svg>
